#tb 0: 2/25
0,          0,          0,        1,   608256, 0x09a9882c
0,          1,          1,        1,   608256, 0xa6747470
0,          2,          2,        1,   608256, 0x8c69aeeb
0,          3,          3,        1,   608256, 0xa9d7e92e
0,          4,          4,        1,   608256, 0xb1a875a5
